<?xml version="1.0" encoding="UTF-8" standalone="no"?>
<!DOCTYPE svg PUBLIC "-//W3C//DTD SVG 1.1//EN"
 "http://www.w3.org/Graphics/SVG/1.1/DTD/svg11.dtd">
<!-- Generated by graphviz version 2.43.0 (0)
 -->
<!-- Title: ct_mono Pages: 1 -->
<svg width="1366pt" height="119pt"
 viewBox="0.00 0.00 1365.90 119.00" xmlns="http://www.w3.org/2000/svg" xmlns:xlink="http://www.w3.org/1999/xlink">
<g id="graph0" class="graph" transform="scale(1 1) rotate(0) translate(4 115)">
<title>ct_mono</title>
<g id="clust1" class="cluster">
<title>cluster_router</title>
<path fill="#e8f5e9" stroke="#388e3c" d="M752.87,-8C752.87,-8 945.87,-8 945.87,-8 951.87,-8 957.87,-14 957.87,-20 957.87,-20 957.87,-91 957.87,-91 957.87,-97 951.87,-103 945.87,-103 945.87,-103 752.87,-103 752.87,-103 746.87,-103 740.87,-97 740.87,-91 740.87,-91 740.87,-20 740.87,-20 740.87,-14 746.87,-8 752.87,-8"/>
<text text-anchor="middle" x="849.37" y="-89.4" font-family="Arial" font-size="12.00">Mk2PVRouter</text>
</g>
<!-- compteur -->
<g id="node1" class="node">
<title>compteur</title>
<path fill="#e3f2fd" stroke="#1976d2" d="M53,-63C53,-63 12,-63 12,-63 6,-63 0,-57 0,-51 0,-51 0,-39 0,-39 0,-33 6,-27 12,-27 12,-27 53,-27 53,-27 59,-27 65,-33 65,-39 65,-39 65,-51 65,-51 65,-57 59,-63 53,-63"/>
<text text-anchor="middle" x="32.5" y="-48.2" font-family="Arial" font-size="11.00">Compteur</text>
<text text-anchor="middle" x="32.5" y="-36.2" font-family="Arial" font-size="11.00">Linky</text>
</g>
<!-- ct1 -->
<g id="node2" class="node">
<title>ct1</title>
<ellipse fill="#fff9c4" stroke="#f9a825" stroke-width="2" cx="236.93" cy="-45" rx="62.87" ry="31.23"/>
<text text-anchor="middle" x="236.93" y="-54.2" font-family="Arial" font-size="11.00" fill="#e65100">CT1</text>
<text text-anchor="middle" x="236.93" y="-42.2" font-family="Arial" font-size="11.00" fill="#e65100">(Grille)</text>
<text text-anchor="middle" x="236.93" y="-30.2" font-family="Arial" font-size="11.00" fill="#e65100">→ vers maison</text>
</g>
<!-- compteur&#45;&gt;ct1 -->
<g id="edge1" class="edge">
<title>compteur&#45;&gt;ct1</title>
<path fill="none" stroke="#e53935" stroke-width="2" d="M65.13,-45C91.43,-45 129.89,-45 163.65,-45"/>
<polygon fill="#e53935" stroke="#e53935" stroke-width="2" points="163.96,-48.5 173.96,-45 163.96,-41.5 163.96,-48.5"/>
<text text-anchor="middle" x="119.5" y="-48" font-family="Arial" font-size="10.00" fill="#e53935">Phase (L)</text>
</g>
<!-- tableau -->
<g id="node3" class="node">
<title>tableau</title>
<path fill="#e8eaf6" stroke="#3f51b5" d="M417.87,-63C417.87,-63 378.87,-63 378.87,-63 372.87,-63 366.87,-57 366.87,-51 366.87,-51 366.87,-39 366.87,-39 366.87,-33 372.87,-27 378.87,-27 378.87,-27 417.87,-27 417.87,-27 423.87,-27 429.87,-33 429.87,-39 429.87,-39 429.87,-51 429.87,-51 429.87,-57 423.87,-63 417.87,-63"/>
<text text-anchor="middle" x="398.37" y="-48.2" font-family="Arial" font-size="11.00">Tableau</text>
<text text-anchor="middle" x="398.37" y="-36.2" font-family="Arial" font-size="11.00">électrique</text>
</g>
<!-- ct1&#45;&gt;tableau -->
<g id="edge2" class="edge">
<title>ct1&#45;&gt;tableau</title>
<path fill="none" stroke="#e53935" stroke-width="2" d="M300.03,-45C319,-45 339.37,-45 356.55,-45"/>
<polygon fill="#e53935" stroke="#e53935" stroke-width="2" points="356.79,-48.5 366.79,-45 356.79,-41.5 356.79,-48.5"/>
</g>
<!-- disj -->
<g id="node4" class="node">
<title>disj</title>
<path fill="#f3e5f5" stroke="#7b1fa2" d="M622.87,-67C622.87,-67 558.87,-67 558.87,-67 552.87,-67 546.87,-61 546.87,-55 546.87,-55 546.87,-35 546.87,-35 546.87,-29 552.87,-23 558.87,-23 558.87,-23 622.87,-23 622.87,-23 628.87,-23 634.87,-29 634.87,-35 634.87,-35 634.87,-55 634.87,-55 634.87,-61 628.87,-67 622.87,-67"/>
<text text-anchor="middle" x="590.87" y="-54.2" font-family="Arial" font-size="11.00">Disjoncteur</text>
<text text-anchor="middle" x="590.87" y="-42.2" font-family="Arial" font-size="11.00">2A / 6A</text>
<text text-anchor="middle" x="590.87" y="-30.2" font-family="Arial" font-size="11.00">(dédié routeur)</text>
</g>
<!-- tableau&#45;&gt;disj -->
<g id="edge3" class="edge">
<title>tableau&#45;&gt;disj</title>
<path fill="none" stroke="black" d="M429.97,-45C458.57,-45 501.88,-45 536.21,-45"/>
<polygon fill="black" stroke="black" points="536.56,-48.5 546.56,-45 536.56,-41.5 536.56,-48.5"/>
<text text-anchor="middle" x="488.37" y="-48" font-family="Arial" font-size="10.00">L + N + PE</text>
</g>
<!-- routeur -->
<g id="node5" class="node">
<title>routeur</title>
<path fill="#c8e6c9" stroke="#388e3c" d="M805.87,-63C805.87,-63 767.87,-63 767.87,-63 761.87,-63 755.87,-57 755.87,-51 755.87,-51 755.87,-39 755.87,-39 755.87,-33 761.87,-27 767.87,-27 767.87,-27 805.87,-27 805.87,-27 811.87,-27 817.87,-33 817.87,-39 817.87,-39 817.87,-51 817.87,-51 817.87,-57 811.87,-63 805.87,-63"/>
<text text-anchor="middle" x="786.87" y="-48.2" font-family="Arial" font-size="11.00">Carte</text>
<text text-anchor="middle" x="786.87" y="-36.2" font-family="Arial" font-size="11.00">principale</text>
</g>
<!-- disj&#45;&gt;routeur -->
<g id="edge4" class="edge">
<title>disj&#45;&gt;routeur</title>
<path fill="none" stroke="black" d="M634.92,-45C667.96,-45 713.24,-45 745.57,-45"/>
<polygon fill="black" stroke="black" points="745.58,-48.5 755.58,-45 745.58,-41.5 745.58,-48.5"/>
<text text-anchor="middle" x="695.37" y="-48" font-family="Arial" font-size="10.00">Alimentation</text>
</g>
<!-- sortie -->
<g id="node6" class="node">
<title>sortie</title>
<path fill="#c8e6c9" stroke="#388e3c" d="M930.87,-67C930.87,-67 896.87,-67 896.87,-67 890.87,-67 884.87,-61 884.87,-55 884.87,-55 884.87,-35 884.87,-35 884.87,-29 890.87,-23 896.87,-23 896.87,-23 930.87,-23 930.87,-23 936.87,-23 942.87,-29 942.87,-35 942.87,-35 942.87,-55 942.87,-55 942.87,-61 936.87,-67 930.87,-67"/>
<text text-anchor="middle" x="913.87" y="-54.2" font-family="Arial" font-size="11.00">Étage</text>
<text text-anchor="middle" x="913.87" y="-42.2" font-family="Arial" font-size="11.00">de sortie</text>
<text text-anchor="middle" x="913.87" y="-30.2" font-family="Arial" font-size="11.00">(triac)</text>
</g>
<!-- routeur&#45;&gt;sortie -->
<g id="edge5" class="edge">
<title>routeur&#45;&gt;sortie</title>
<path fill="none" stroke="#666666" stroke-dasharray="5,2" d="M818.12,-45C835.04,-45 856.29,-45 874.37,-45"/>
<polygon fill="#666666" stroke="#666666" points="874.6,-48.5 884.6,-45 874.6,-41.5 874.6,-48.5"/>
</g>
<!-- ct2 -->
<g id="node7" class="node">
<title>ct2</title>
<ellipse fill="#fff9c4" stroke="#f9a825" stroke-width="2" stroke-dasharray="5,2" cx="1152.38" cy="-45" rx="61.54" ry="39.7"/>
<text text-anchor="middle" x="1152.38" y="-60.2" font-family="Arial" font-size="11.00" fill="#e65100">CT2</text>
<text text-anchor="middle" x="1152.38" y="-48.2" font-family="Arial" font-size="11.00" fill="#e65100">(Diversion)</text>
<text text-anchor="middle" x="1152.38" y="-36.2" font-family="Arial" font-size="11.00" fill="#e65100">→ vers charge</text>
<text text-anchor="middle" x="1152.38" y="-24.2" font-family="Arial" font-size="11.00" fill="#e65100">(optionnel)</text>
</g>
<!-- sortie&#45;&gt;ct2 -->
<g id="edge6" class="edge">
<title>sortie&#45;&gt;ct2</title>
<path fill="none" stroke="#e53935" stroke-width="2" d="M942.93,-45C976.6,-45 1034.29,-45 1080.46,-45"/>
<polygon fill="#e53935" stroke="#e53935" stroke-width="2" points="1080.72,-48.5 1090.72,-45 1080.72,-41.5 1080.72,-48.5"/>
<text text-anchor="middle" x="1016.87" y="-48" font-family="Arial" font-size="10.00">Phase vers charge</text>
</g>
<!-- charge -->
<g id="node8" class="node">
<title>charge</title>
<path fill="#ffccbc" stroke="#d84315" d="M1345.9,-67C1345.9,-67 1292.9,-67 1292.9,-67 1286.9,-67 1280.9,-61 1280.9,-55 1280.9,-55 1280.9,-35 1280.9,-35 1280.9,-29 1286.9,-23 1292.9,-23 1292.9,-23 1345.9,-23 1345.9,-23 1351.9,-23 1357.9,-29 1357.9,-35 1357.9,-35 1357.9,-55 1357.9,-55 1357.9,-61 1351.9,-67 1345.9,-67"/>
<text text-anchor="middle" x="1319.4" y="-54.2" font-family="Arial" font-size="11.00">Charge</text>
<text text-anchor="middle" x="1319.4" y="-42.2" font-family="Arial" font-size="11.00">(chauffe&#45;eau</text>
<text text-anchor="middle" x="1319.4" y="-30.2" font-family="Arial" font-size="11.00">2&#45;3 kW)</text>
</g>
<!-- ct2&#45;&gt;charge -->
<g id="edge7" class="edge">
<title>ct2&#45;&gt;charge</title>
<path fill="none" stroke="#e53935" stroke-width="2" d="M1214.36,-45C1232.93,-45 1253.07,-45 1270.64,-45"/>
<polygon fill="#e53935" stroke="#e53935" stroke-width="2" points="1270.65,-48.5 1280.65,-45 1270.65,-41.5 1270.65,-48.5"/>
</g>
</g>
</svg>
