<?xml version="1.0" encoding="UTF-8" standalone="no"?>
<!DOCTYPE svg PUBLIC "-//W3C//DTD SVG 1.1//EN"
 "http://www.w3.org/Graphics/SVG/1.1/DTD/svg11.dtd">
<!-- Generated by graphviz version 2.43.0 (0)
 -->
<!-- Title: ct_tri Pages: 1 -->
<svg width="1351pt" height="266pt"
 viewBox="0.00 0.00 1351.00 266.23" xmlns="http://www.w3.org/2000/svg" xmlns:xlink="http://www.w3.org/1999/xlink">
<g id="graph0" class="graph" transform="scale(1 1) rotate(0) translate(4 262.23)">
<title>ct_tri</title>
<g id="clust1" class="cluster">
<title>cluster_router</title>
<path fill="#e8f5e9" stroke="#388e3c" d="M598,-57.11C598,-57.11 949,-57.11 949,-57.11 955,-57.11 961,-63.11 961,-69.11 961,-69.11 961,-210.11 961,-210.11 961,-216.11 955,-222.11 949,-222.11 949,-222.11 598,-222.11 598,-222.11 592,-222.11 586,-216.11 586,-210.11 586,-210.11 586,-69.11 586,-69.11 586,-63.11 592,-57.11 598,-57.11"/>
<text text-anchor="middle" x="773.5" y="-208.51" font-family="Arial" font-size="12.00">Mk2PVRouter</text>
</g>
<!-- compteur -->
<g id="node1" class="node">
<title>compteur</title>
<path fill="#e3f2fd" stroke="#1976d2" d="M53,-147.11C53,-147.11 12,-147.11 12,-147.11 6,-147.11 0,-141.11 0,-135.11 0,-135.11 0,-123.11 0,-123.11 0,-117.11 6,-111.11 12,-111.11 12,-111.11 53,-111.11 53,-111.11 59,-111.11 65,-117.11 65,-123.11 65,-123.11 65,-135.11 65,-135.11 65,-141.11 59,-147.11 53,-147.11"/>
<text text-anchor="middle" x="32.5" y="-132.31" font-family="Arial" font-size="11.00">Compteur</text>
<text text-anchor="middle" x="32.5" y="-120.31" font-family="Arial" font-size="11.00">(triphasé)</text>
</g>
<!-- ct1 -->
<g id="node2" class="node">
<title>ct1</title>
<ellipse fill="#ffcdd2" stroke="#e53935" stroke-width="2" cx="169" cy="-227.11" rx="27" ry="31.23"/>
<text text-anchor="middle" x="169" y="-236.31" font-family="Arial" font-size="11.00" fill="#b71c1c">CT1</text>
<text text-anchor="middle" x="169" y="-224.31" font-family="Arial" font-size="11.00" fill="#b71c1c">(L1)</text>
<text text-anchor="middle" x="169" y="-212.31" font-family="Arial" font-size="11.00" fill="#b71c1c">→</text>
</g>
<!-- compteur&#45;&gt;ct1 -->
<g id="edge1" class="edge">
<title>compteur&#45;&gt;ct1</title>
<path fill="none" stroke="#e53935" stroke-width="2" d="M58.48,-147.32C80.81,-163.58 113.59,-187.47 137.47,-204.87"/>
<polygon fill="#e53935" stroke="#e53935" stroke-width="2" points="135.68,-207.9 145.83,-210.96 139.81,-202.24 135.68,-207.9"/>
<text text-anchor="middle" x="103.5" y="-186.11" font-family="Arial" font-size="10.00" fill="#e53935">L1</text>
</g>
<!-- ct2 -->
<g id="node3" class="node">
<title>ct2</title>
<ellipse fill="#ffe0b2" stroke="#fb8c00" stroke-width="2" cx="169" cy="-129.11" rx="27" ry="31.23"/>
<text text-anchor="middle" x="169" y="-138.31" font-family="Arial" font-size="11.00" fill="#e65100">CT2</text>
<text text-anchor="middle" x="169" y="-126.31" font-family="Arial" font-size="11.00" fill="#e65100">(L2)</text>
<text text-anchor="middle" x="169" y="-114.31" font-family="Arial" font-size="11.00" fill="#e65100">→</text>
</g>
<!-- compteur&#45;&gt;ct2 -->
<g id="edge3" class="edge">
<title>compteur&#45;&gt;ct2</title>
<path fill="none" stroke="#fb8c00" stroke-width="2" d="M65.03,-129.11C84.96,-129.11 110.78,-129.11 131.58,-129.11"/>
<polygon fill="#fb8c00" stroke="#fb8c00" stroke-width="2" points="131.64,-132.61 141.64,-129.11 131.64,-125.61 131.64,-132.61"/>
<text text-anchor="middle" x="103.5" y="-132.11" font-family="Arial" font-size="10.00" fill="#fb8c00">L2</text>
</g>
<!-- ct3 -->
<g id="node4" class="node">
<title>ct3</title>
<ellipse fill="#bbdefb" stroke="#1e88e5" stroke-width="2" cx="169" cy="-31.11" rx="27" ry="31.23"/>
<text text-anchor="middle" x="169" y="-40.31" font-family="Arial" font-size="11.00" fill="#0d47a1">CT3</text>
<text text-anchor="middle" x="169" y="-28.31" font-family="Arial" font-size="11.00" fill="#0d47a1">(L3)</text>
<text text-anchor="middle" x="169" y="-16.31" font-family="Arial" font-size="11.00" fill="#0d47a1">→</text>
</g>
<!-- compteur&#45;&gt;ct3 -->
<g id="edge5" class="edge">
<title>compteur&#45;&gt;ct3</title>
<path fill="none" stroke="#1e88e5" stroke-width="2" d="M58.48,-110.91C80.81,-94.64 113.59,-70.76 137.47,-53.36"/>
<polygon fill="#1e88e5" stroke="#1e88e5" stroke-width="2" points="139.81,-55.99 145.83,-47.27 135.68,-50.33 139.81,-55.99"/>
<text text-anchor="middle" x="103.5" y="-83.11" font-family="Arial" font-size="10.00" fill="#1e88e5">L3</text>
</g>
<!-- tableau -->
<g id="node5" class="node">
<title>tableau</title>
<path fill="#e8eaf6" stroke="#3f51b5" d="M324,-147.11C324,-147.11 285,-147.11 285,-147.11 279,-147.11 273,-141.11 273,-135.11 273,-135.11 273,-123.11 273,-123.11 273,-117.11 279,-111.11 285,-111.11 285,-111.11 324,-111.11 324,-111.11 330,-111.11 336,-117.11 336,-123.11 336,-123.11 336,-135.11 336,-135.11 336,-141.11 330,-147.11 324,-147.11"/>
<text text-anchor="middle" x="304.5" y="-132.31" font-family="Arial" font-size="11.00">Tableau</text>
<text text-anchor="middle" x="304.5" y="-120.31" font-family="Arial" font-size="11.00">électrique</text>
</g>
<!-- ct1&#45;&gt;tableau -->
<g id="edge2" class="edge">
<title>ct1&#45;&gt;tableau</title>
<path fill="none" stroke="#e53935" stroke-width="2" d="M192.34,-210.71C213.73,-195.01 246.23,-171.15 270.57,-153.28"/>
<polygon fill="#e53935" stroke="#e53935" stroke-width="2" points="272.82,-155.97 278.81,-147.23 268.68,-150.33 272.82,-155.97"/>
<text text-anchor="middle" x="234.5" y="-183.11" font-family="Arial" font-size="10.00" fill="#e53935">L1</text>
</g>
<!-- ct2&#45;&gt;tableau -->
<g id="edge4" class="edge">
<title>ct2&#45;&gt;tableau</title>
<path fill="none" stroke="#fb8c00" stroke-width="2" d="M196.06,-129.11C214.97,-129.11 240.93,-129.11 262.59,-129.11"/>
<polygon fill="#fb8c00" stroke="#fb8c00" stroke-width="2" points="262.83,-132.61 272.83,-129.11 262.83,-125.61 262.83,-132.61"/>
<text text-anchor="middle" x="234.5" y="-132.11" font-family="Arial" font-size="10.00" fill="#fb8c00">L2</text>
</g>
<!-- ct3&#45;&gt;tableau -->
<g id="edge6" class="edge">
<title>ct3&#45;&gt;tableau</title>
<path fill="none" stroke="#1e88e5" stroke-width="2" d="M192.34,-47.52C213.73,-63.21 246.23,-87.07 270.57,-104.94"/>
<polygon fill="#1e88e5" stroke="#1e88e5" stroke-width="2" points="268.68,-107.89 278.81,-110.99 272.82,-102.25 268.68,-107.89"/>
<text text-anchor="middle" x="234.5" y="-83.11" font-family="Arial" font-size="10.00" fill="#1e88e5">L3</text>
</g>
<!-- disj -->
<g id="node6" class="node">
<title>disj</title>
<path fill="#f3e5f5" stroke="#7b1fa2" d="M522,-151.11C522,-151.11 458,-151.11 458,-151.11 452,-151.11 446,-145.11 446,-139.11 446,-139.11 446,-119.11 446,-119.11 446,-113.11 452,-107.11 458,-107.11 458,-107.11 522,-107.11 522,-107.11 528,-107.11 534,-113.11 534,-119.11 534,-119.11 534,-139.11 534,-139.11 534,-145.11 528,-151.11 522,-151.11"/>
<text text-anchor="middle" x="490" y="-138.31" font-family="Arial" font-size="11.00">Disjoncteur</text>
<text text-anchor="middle" x="490" y="-126.31" font-family="Arial" font-size="11.00">tétrapolaire</text>
<text text-anchor="middle" x="490" y="-114.31" font-family="Arial" font-size="11.00">(dédié routeur)</text>
</g>
<!-- tableau&#45;&gt;disj -->
<g id="edge7" class="edge">
<title>tableau&#45;&gt;disj</title>
<path fill="none" stroke="black" d="M336.21,-129.11C363.28,-129.11 403.32,-129.11 435.62,-129.11"/>
<polygon fill="black" stroke="black" points="435.81,-132.61 445.81,-129.11 435.81,-125.61 435.81,-132.61"/>
<text text-anchor="middle" x="391" y="-143.11" font-family="Arial" font-size="10.00">L1+L2+L3</text>
<text text-anchor="middle" x="391" y="-132.11" font-family="Arial" font-size="10.00">+N+PE</text>
</g>
<!-- conn -->
<g id="node7" class="node">
<title>conn</title>
<path fill="#c8e6c9" stroke="#388e3c" d="M613,-73.11C613,-73.11 700,-73.11 700,-73.11 706,-73.11 712,-79.11 712,-85.11 712,-85.11 712,-173.11 712,-173.11 712,-179.11 706,-185.11 700,-185.11 700,-185.11 613,-185.11 613,-185.11 607,-185.11 601,-179.11 601,-173.11 601,-173.11 601,-85.11 601,-85.11 601,-79.11 607,-73.11 613,-73.11"/>
<text text-anchor="middle" x="656.5" y="-172.31" font-family="Arial" font-size="11.00">Connecteur secteur</text>
<text text-anchor="middle" x="656.5" y="-160.31" font-family="Arial" font-size="11.00">PE</text>
<polyline fill="none" stroke="#388e3c" points="601,-153.11 712,-153.11 "/>
<text text-anchor="middle" x="656.5" y="-140.31" font-family="Arial" font-size="11.00">N</text>
<polyline fill="none" stroke="#388e3c" points="601,-133.11 712,-133.11 "/>
<text text-anchor="middle" x="656.5" y="-120.31" font-family="Arial" font-size="11.00">L1</text>
<polyline fill="none" stroke="#388e3c" points="601,-113.11 712,-113.11 "/>
<text text-anchor="middle" x="656.5" y="-100.31" font-family="Arial" font-size="11.00">L2</text>
<polyline fill="none" stroke="#388e3c" points="601,-93.11 712,-93.11 "/>
<text text-anchor="middle" x="656.5" y="-80.31" font-family="Arial" font-size="11.00">L3</text>
</g>
<!-- disj&#45;&gt;conn -->
<g id="edge8" class="edge">
<title>disj&#45;&gt;conn</title>
<path fill="none" stroke="black" d="M534.22,-129.11C551.49,-129.11 571.74,-129.11 590.7,-129.11"/>
<polygon fill="black" stroke="black" points="590.77,-132.61 600.77,-129.11 590.77,-125.61 590.77,-132.61"/>
</g>
<!-- routeur -->
<g id="node8" class="node">
<title>routeur</title>
<path fill="#c8e6c9" stroke="#388e3c" d="M934,-147.11C934,-147.11 791,-147.11 791,-147.11 785,-147.11 779,-141.11 779,-135.11 779,-135.11 779,-123.11 779,-123.11 779,-117.11 785,-111.11 791,-111.11 791,-111.11 934,-111.11 934,-111.11 940,-111.11 946,-117.11 946,-123.11 946,-123.11 946,-135.11 946,-135.11 946,-141.11 940,-147.11 934,-147.11"/>
<text text-anchor="middle" x="862.5" y="-132.31" font-family="Arial" font-size="11.00">Carte principale</text>
<text text-anchor="middle" x="862.5" y="-120.31" font-family="Arial" font-size="11.00">CT1→L1 | CT2→L2 | CT3→L3</text>
</g>
<!-- conn&#45;&gt;routeur -->
<!-- etages -->
<g id="node10" class="node">
<title>etages</title>
<path fill="#c8e6c9" stroke="#388e3c" d="M1128,-147.11C1128,-147.11 1057,-147.11 1057,-147.11 1051,-147.11 1045,-141.11 1045,-135.11 1045,-135.11 1045,-123.11 1045,-123.11 1045,-117.11 1051,-111.11 1057,-111.11 1057,-111.11 1128,-111.11 1128,-111.11 1134,-111.11 1140,-117.11 1140,-123.11 1140,-123.11 1140,-135.11 1140,-135.11 1140,-141.11 1134,-147.11 1128,-147.11"/>
<text text-anchor="middle" x="1092.5" y="-132.31" font-family="Arial" font-size="11.00">Étages de sortie</text>
<text text-anchor="middle" x="1092.5" y="-120.31" font-family="Arial" font-size="11.00">(triac / relais)</text>
</g>
<!-- routeur&#45;&gt;etages -->
<g id="edge10" class="edge">
<title>routeur&#45;&gt;etages</title>
<path fill="none" stroke="#666666" stroke-dasharray="5,2" d="M946.14,-129.11C975.5,-129.11 1007.87,-129.11 1034.6,-129.11"/>
<polygon fill="#666666" stroke="#666666" points="1034.93,-132.61 1044.93,-129.11 1034.93,-125.61 1034.93,-132.61"/>
<text text-anchor="middle" x="995.5" y="-143.11" font-family="Arial" font-size="10.00">Signal</text>
<text text-anchor="middle" x="995.5" y="-132.11" font-family="Arial" font-size="10.00">(Molex)</text>
</g>
<!-- charges -->
<g id="node9" class="node">
<title>charges</title>
<path fill="#ffccbc" stroke="#d84315" d="M1331,-151.11C1331,-151.11 1275,-151.11 1275,-151.11 1269,-151.11 1263,-145.11 1263,-139.11 1263,-139.11 1263,-119.11 1263,-119.11 1263,-113.11 1269,-107.11 1275,-107.11 1275,-107.11 1331,-107.11 1331,-107.11 1337,-107.11 1343,-113.11 1343,-119.11 1343,-119.11 1343,-139.11 1343,-139.11 1343,-145.11 1337,-151.11 1331,-151.11"/>
<text text-anchor="middle" x="1303" y="-138.31" font-family="Arial" font-size="11.00">Charges</text>
<text text-anchor="middle" x="1303" y="-126.31" font-family="Arial" font-size="11.00">(chauffe&#45;eau,</text>
<text text-anchor="middle" x="1303" y="-114.31" font-family="Arial" font-size="11.00">radiateurs)</text>
</g>
<!-- etages&#45;&gt;charges -->
<g id="edge11" class="edge">
<title>etages&#45;&gt;charges</title>
<path fill="none" stroke="#e53935" stroke-width="2" d="M1140.03,-129.11C1173.53,-129.11 1218.64,-129.11 1252.75,-129.11"/>
<polygon fill="#e53935" stroke="#e53935" stroke-width="2" points="1252.96,-132.61 1262.96,-129.11 1252.96,-125.61 1252.96,-132.61"/>
<text text-anchor="middle" x="1201.5" y="-143.11" font-family="Arial" font-size="10.00">Phase(s)</text>
<text text-anchor="middle" x="1201.5" y="-132.11" font-family="Arial" font-size="10.00">vers charges</text>
</g>
</g>
</svg>
