<?xml version="1.0" encoding="UTF-8" standalone="no"?>
<!DOCTYPE svg PUBLIC "-//W3C//DTD SVG 1.1//EN"
 "http://www.w3.org/Graphics/SVG/1.1/DTD/svg11.dtd">
<!-- Generated by graphviz version 2.43.0 (0)
 -->
<!-- Title: soldering_station Pages: 1 -->
<svg width="602pt" height="503pt"
 viewBox="0.00 0.00 602.00 503.00" xmlns="http://www.w3.org/2000/svg" xmlns:xlink="http://www.w3.org/1999/xlink">
<g id="graph0" class="graph" transform="scale(1 1) rotate(0) translate(4 499)">
<title>soldering_station</title>
<polygon fill="white" stroke="transparent" points="-4,4 -4,-499 598,-499 598,4 -4,4"/>
<g id="clust1" class="cluster">
<title>cluster_workstation</title>
<path fill="#f5f5f5" stroke="#333333" d="M20,-8C20,-8 574,-8 574,-8 580,-8 586,-14 586,-20 586,-20 586,-475 586,-475 586,-481 580,-487 574,-487 574,-487 20,-487 20,-487 14,-487 8,-481 8,-475 8,-475 8,-20 8,-20 8,-14 14,-8 20,-8"/>
<text text-anchor="middle" x="297" y="-471.8" font-family="Times,serif" font-size="14.00" fill="#333333">POSTE DE SOUDURE</text>
</g>
<g id="clust3" class="cluster">
<title>cluster_storage</title>
</g>
<!-- lamp -->
<g id="node1" class="node">
<title>lamp</title>
<path fill="#fff9c4" stroke="#f9a825" d="M115,-439C115,-439 45,-439 45,-439 39,-439 33,-433 33,-427 33,-427 33,-393 33,-393 33,-387 39,-381 45,-381 45,-381 115,-381 115,-381 121,-381 127,-387 127,-393 127,-393 127,-427 127,-427 127,-433 121,-439 115,-439"/>
<text text-anchor="middle" x="80" y="-413.8" font-family="Arial" font-size="14.00">Lampe</text>
<text text-anchor="middle" x="80" y="-398.8" font-family="Arial" font-size="14.00">LED</text>
</g>
<!-- pcb -->
<g id="node2" class="node">
<title>pcb</title>
<path fill="#e3f2fd" stroke="#1976d2" stroke-width="2" d="M339,-439C339,-439 255,-439 255,-439 249,-439 243,-433 243,-427 243,-427 243,-393 243,-393 243,-387 249,-381 255,-381 255,-381 339,-381 339,-381 345,-381 351,-387 351,-393 351,-393 351,-427 351,-427 351,-433 345,-439 339,-439"/>
<text text-anchor="middle" x="297" y="-413.8" font-family="Arial" font-size="14.00" fill="#0d47a1">PCB sur</text>
<text text-anchor="middle" x="297" y="-398.8" font-family="Arial" font-size="14.00" fill="#0d47a1">support</text>
</g>
<!-- lamp&#45;&gt;pcb -->
<!-- lamp&#45;&gt;pcb -->
<g id="edge3" class="edge">
<title>lamp&#45;&gt;pcb</title>
<path fill="none" stroke="#f9a825" d="M127.09,-400C127.09,-400 232.74,-400 232.74,-400"/>
<polygon fill="#f9a825" stroke="#f9a825" points="232.74,-403.5 242.74,-400 232.74,-396.5 232.74,-403.5"/>
</g>
<!-- iron_stand -->
<g id="node3" class="node">
<title>iron_stand</title>
<path fill="#ffccbc" stroke="#d84315" d="M549,-439C549,-439 479,-439 479,-439 473,-439 467,-433 467,-427 467,-427 467,-393 467,-393 467,-387 473,-381 479,-381 479,-381 549,-381 549,-381 555,-381 561,-387 561,-393 561,-393 561,-427 561,-427 561,-433 555,-439 549,-439"/>
<text text-anchor="middle" x="514" y="-413.8" font-family="Arial" font-size="14.00">Support</text>
<text text-anchor="middle" x="514" y="-398.8" font-family="Arial" font-size="14.00">fer</text>
</g>
<!-- pcb&#45;&gt;iron_stand -->
<!-- pcb&#45;&gt;iron_stand -->
<g id="edge4" class="edge">
<title>pcb&#45;&gt;iron_stand</title>
<path fill="none" stroke="#d84315" d="M361.2,-400C361.2,-400 466.75,-400 466.75,-400"/>
<polygon fill="#d84315" stroke="#d84315" points="361.2,-396.5 351.2,-400 361.2,-403.5 361.2,-396.5"/>
</g>
<!-- extractor -->
<g id="node4" class="node">
<title>extractor</title>
<path fill="#c8e6c9" stroke="#388e3c" d="M317.5,-327C317.5,-327 226.5,-327 226.5,-327 220.5,-327 214.5,-321 214.5,-315 214.5,-315 214.5,-281 214.5,-281 214.5,-275 220.5,-269 226.5,-269 226.5,-269 317.5,-269 317.5,-269 323.5,-269 329.5,-275 329.5,-281 329.5,-281 329.5,-315 329.5,-315 329.5,-321 323.5,-327 317.5,-327"/>
<text text-anchor="middle" x="272" y="-301.8" font-family="Arial" font-size="14.00">Extracteur</text>
<text text-anchor="middle" x="272" y="-286.8" font-family="Arial" font-size="14.00">de fumées</text>
</g>
<!-- pcb&#45;&gt;extractor -->
<g id="edge5" class="edge">
<title>pcb&#45;&gt;extractor</title>
<path fill="none" stroke="#388e3c" d="M286.25,-370.87C286.25,-370.87 286.25,-327.38 286.25,-327.38"/>
<polygon fill="#388e3c" stroke="#388e3c" points="282.75,-370.87 286.25,-380.87 289.75,-370.87 282.75,-370.87"/>
<text text-anchor="middle" x="318" y="-351.8" font-family="Arial" font-size="9.00" fill="#1b5e20"> &#160;Aspire fumées &#160;</text>
</g>
<!-- left_zone -->
<g id="node5" class="node">
<title>left_zone</title>
<path fill="lightgrey" stroke="transparent" d="M237,-190C237,-190 157,-190 157,-190 151,-190 145,-184 145,-178 145,-178 145,-70 145,-70 145,-64 151,-58 157,-58 157,-58 237,-58 237,-58 243,-58 249,-64 249,-70 249,-70 249,-178 249,-178 249,-184 243,-190 237,-190"/>
<polygon fill="#e8eaf6" stroke="transparent" points="145,-58 145,-190 249,-190 249,-58 145,-58"/>
<polygon fill="#5c6bc0" stroke="transparent" points="145,-157 145,-190 249,-190 249,-157 145,-157"/>
<polygon fill="none" stroke="black" points="145,-157 145,-190 249,-190 249,-157 145,-157"/>
<text text-anchor="start" x="160.5" y="-170.8" font-family="Arial" font-weight="bold" font-size="14.00" fill="white">À GAUCHE</text>
<polygon fill="none" stroke="black" points="145,-124 145,-157 249,-157 249,-124 145,-124"/>
<text text-anchor="start" x="154" y="-136.8" font-family="Arial" font-size="14.00">• Composants</text>
<polygon fill="none" stroke="black" points="145,-91 145,-124 249,-124 249,-91 145,-91"/>
<text text-anchor="start" x="154" y="-103.8" font-family="Arial" font-size="14.00">• Fil soudure</text>
<polygon fill="none" stroke="black" points="145,-58 145,-91 249,-91 249,-58 145,-58"/>
<text text-anchor="start" x="154" y="-70.8" font-family="Arial" font-size="14.00">• Flux</text>
</g>
<!-- extractor&#45;&gt;left_zone -->
<!-- right_zone -->
<g id="node6" class="node">
<title>right_zone</title>
<path fill="lightgrey" stroke="transparent" d="M523.5,-173.5C523.5,-173.5 376.5,-173.5 376.5,-173.5 370.5,-173.5 364.5,-167.5 364.5,-161.5 364.5,-161.5 364.5,-86.5 364.5,-86.5 364.5,-80.5 370.5,-74.5 376.5,-74.5 376.5,-74.5 523.5,-74.5 523.5,-74.5 529.5,-74.5 535.5,-80.5 535.5,-86.5 535.5,-86.5 535.5,-161.5 535.5,-161.5 535.5,-167.5 529.5,-173.5 523.5,-173.5"/>
<polygon fill="#fff3e0" stroke="transparent" points="364.5,-74.5 364.5,-173.5 535.5,-173.5 535.5,-74.5 364.5,-74.5"/>
<polygon fill="#fb8c00" stroke="transparent" points="365,-140 365,-173 536,-173 536,-140 365,-140"/>
<polygon fill="none" stroke="black" points="365,-140 365,-173 536,-173 536,-140 365,-140"/>
<text text-anchor="start" x="417.5" y="-153.8" font-family="Arial" font-weight="bold" font-size="14.00" fill="white">À DROITE</text>
<polygon fill="none" stroke="black" points="365,-107 365,-140 536,-140 536,-107 365,-107"/>
<text text-anchor="start" x="374" y="-119.8" font-family="Arial" font-size="14.00">• Outils (pince, coupante)</text>
<polygon fill="none" stroke="black" points="365,-74 365,-107 536,-107 536,-74 365,-74"/>
<text text-anchor="start" x="374" y="-86.8" font-family="Arial" font-size="14.00">• Éponge/laine cuivre</text>
</g>
<!-- left_zone&#45;&gt;right_zone -->
</g>
</svg>
