<?xml version="1.0" encoding="UTF-8" standalone="no"?>
<!DOCTYPE svg PUBLIC "-//W3C//DTD SVG 1.1//EN"
 "http://www.w3.org/Graphics/SVG/1.1/DTD/svg11.dtd">
<!-- Generated by graphviz version 2.43.0 (0)
 -->
<!-- Title: Mk2PVRouter Pages: 1 -->
<svg width="394pt" height="465pt"
 viewBox="0.00 0.00 394.00 465.00" xmlns="http://www.w3.org/2000/svg" xmlns:xlink="http://www.w3.org/1999/xlink">
<g id="graph0" class="graph" transform="scale(1 1) rotate(0) translate(4 461)">
<title>Mk2PVRouter</title>
<polygon fill="white" stroke="transparent" points="-4,4 -4,-461 390,-461 390,4 -4,4"/>
<!-- start -->
<g id="node1" class="node">
<title>start</title>
<ellipse fill="none" stroke="black" cx="315" cy="-439" rx="34.39" ry="18"/>
<text text-anchor="middle" x="315" y="-435.3" font-family="Arial" font-size="14.00">Début</text>
</g>
<!-- measure -->
<g id="node2" class="node">
<title>measure</title>
<path fill="none" stroke="black" d="M341.5,-384C341.5,-384 140.5,-384 140.5,-384 134.5,-384 128.5,-378 128.5,-372 128.5,-372 128.5,-358 128.5,-358 128.5,-352 134.5,-346 140.5,-346 140.5,-346 341.5,-346 341.5,-346 347.5,-346 353.5,-352 353.5,-358 353.5,-358 353.5,-372 353.5,-372 353.5,-378 347.5,-384 341.5,-384"/>
<text text-anchor="middle" x="241" y="-368.8" font-family="Arial" font-size="14.00">Mesure du courant et de la tension</text>
<text text-anchor="middle" x="241" y="-353.8" font-family="Arial" font-size="14.00">au point de raccordement</text>
</g>
<!-- start&#45;&gt;measure -->
<g id="edge1" class="edge">
<title>start&#45;&gt;measure</title>
<path fill="none" stroke="black" d="M299.31,-422.73C289.86,-413.54 277.61,-401.62 266.77,-391.07"/>
<polygon fill="black" stroke="black" points="269.16,-388.51 259.55,-384.05 264.27,-393.53 269.16,-388.51"/>
</g>
<!-- calculate -->
<g id="node3" class="node">
<title>calculate</title>
<path fill="none" stroke="black" d="M295,-309C295,-309 139,-309 139,-309 133,-309 127,-303 127,-297 127,-297 127,-285 127,-285 127,-279 133,-273 139,-273 139,-273 295,-273 295,-273 301,-273 307,-279 307,-285 307,-285 307,-297 307,-297 307,-303 301,-309 295,-309"/>
<text text-anchor="middle" x="217" y="-287.3" font-family="Arial" font-size="14.00">Calcul du bilan énergétique</text>
</g>
<!-- measure&#45;&gt;calculate -->
<g id="edge2" class="edge">
<title>measure&#45;&gt;calculate</title>
<path fill="none" stroke="black" d="M234.94,-345.83C232.24,-337.72 229,-327.99 226.02,-319.05"/>
<polygon fill="black" stroke="black" points="229.29,-317.8 222.81,-309.42 222.65,-320.01 229.29,-317.8"/>
</g>
<!-- decision -->
<g id="node4" class="node">
<title>decision</title>
<path fill="none" stroke="black" d="M167.26,-233.51C167.26,-233.51 11.74,-200.49 11.74,-200.49 5.87,-199.25 5.87,-196.75 11.74,-195.51 11.74,-195.51 167.26,-162.49 167.26,-162.49 173.13,-161.25 184.87,-161.25 190.74,-162.49 190.74,-162.49 346.26,-195.51 346.26,-195.51 352.13,-196.75 352.13,-199.25 346.26,-200.49 346.26,-200.49 190.74,-233.51 190.74,-233.51 184.87,-234.75 173.13,-234.75 167.26,-233.51"/>
<text text-anchor="middle" x="179" y="-201.8" font-family="Arial" font-size="14.00">Le bilan énergétique est&#45;il :</text>
<text text-anchor="middle" x="179" y="-186.8" font-family="Arial" font-size="14.00">Positif, Nul ou Négatif ?</text>
</g>
<!-- calculate&#45;&gt;decision -->
<g id="edge3" class="edge">
<title>calculate&#45;&gt;decision</title>
<path fill="none" stroke="black" d="M209.85,-272.88C206.23,-264.2 201.64,-253.23 197.13,-242.41"/>
<polygon fill="black" stroke="black" points="200.28,-240.88 193.2,-233 193.82,-243.58 200.28,-240.88"/>
</g>
<!-- redirect -->
<g id="node5" class="node">
<title>redirect</title>
<path fill="none" stroke="black" d="M125,-109C125,-109 51,-109 51,-109 45,-109 39,-103 39,-97 39,-97 39,-85 39,-85 39,-79 45,-73 51,-73 51,-73 125,-73 125,-73 131,-73 137,-79 137,-85 137,-85 137,-97 137,-97 137,-103 131,-109 125,-109"/>
<text text-anchor="middle" x="88" y="-87.3" font-family="Arial" font-size="14.00">Triac passant</text>
</g>
<!-- decision&#45;&gt;redirect -->
<g id="edge4" class="edge">
<title>decision&#45;&gt;redirect</title>
<path fill="none" stroke="black" d="M151.7,-165.5C138.18,-149.9 122.1,-131.34 109.48,-116.78"/>
<polygon fill="black" stroke="black" points="112.05,-114.41 102.86,-109.14 106.76,-118.99 112.05,-114.41"/>
<text text-anchor="middle" x="154" y="-130.8" font-family="Times,serif" font-size="14.00">Positif</text>
</g>
<!-- no_action -->
<g id="node6" class="node">
<title>no_action</title>
<path fill="none" stroke="black" d="M233,-109C233,-109 167,-109 167,-109 161,-109 155,-103 155,-97 155,-97 155,-85 155,-85 155,-79 161,-73 167,-73 167,-73 233,-73 233,-73 239,-73 245,-79 245,-85 245,-85 245,-97 245,-97 245,-103 239,-109 233,-109"/>
<text text-anchor="middle" x="200" y="-87.3" font-family="Arial" font-size="14.00">Pas d’action</text>
</g>
<!-- decision&#45;&gt;no_action -->
<g id="edge5" class="edge">
<title>decision&#45;&gt;no_action</title>
<path fill="none" stroke="black" d="M186.11,-161.45C188.86,-147.69 191.96,-132.2 194.53,-119.34"/>
<polygon fill="black" stroke="black" points="198.02,-119.74 196.55,-109.25 191.16,-118.37 198.02,-119.74"/>
<text text-anchor="middle" x="206" y="-130.8" font-family="Times,serif" font-size="14.00">Nul</text>
</g>
<!-- disable -->
<g id="node7" class="node">
<title>disable</title>
<path fill="none" stroke="black" d="M339,-109C339,-109 275,-109 275,-109 269,-109 263,-103 263,-97 263,-97 263,-85 263,-85 263,-79 269,-73 275,-73 275,-73 339,-73 339,-73 345,-73 351,-79 351,-85 351,-85 351,-97 351,-97 351,-103 345,-109 339,-109"/>
<text text-anchor="middle" x="307" y="-87.3" font-family="Arial" font-size="14.00">Triac ouvert</text>
</g>
<!-- decision&#45;&gt;disable -->
<g id="edge6" class="edge">
<title>decision&#45;&gt;disable</title>
<path fill="none" stroke="black" d="M215,-167.47C234.96,-151.09 259.46,-131 278.16,-115.66"/>
<polygon fill="black" stroke="black" points="280.53,-118.24 286.04,-109.19 276.09,-112.83 280.53,-118.24"/>
<text text-anchor="middle" x="289" y="-130.8" font-family="Times,serif" font-size="14.00">Négatif</text>
</g>
<!-- end -->
<g id="node8" class="node">
<title>end</title>
<ellipse fill="none" stroke="black" cx="249" cy="-18" rx="73.39" ry="18"/>
<text text-anchor="middle" x="249" y="-14.3" font-family="Arial" font-size="14.00">Retour au début</text>
</g>
<!-- redirect&#45;&gt;end -->
<g id="edge7" class="edge">
<title>redirect&#45;&gt;end</title>
<path fill="none" stroke="black" d="M126.56,-72.99C150.3,-62.53 180.78,-49.08 205.39,-38.23"/>
<polygon fill="black" stroke="black" points="207.12,-41.3 214.85,-34.06 204.29,-34.89 207.12,-41.3"/>
</g>
<!-- no_action&#45;&gt;end -->
<g id="edge8" class="edge">
<title>no_action&#45;&gt;end</title>
<path fill="none" stroke="black" d="M211.86,-72.81C217.76,-64.27 225,-53.77 231.52,-44.32"/>
<polygon fill="black" stroke="black" points="234.45,-46.25 237.25,-36.03 228.69,-42.27 234.45,-46.25"/>
</g>
<!-- disable&#45;&gt;end -->
<g id="edge9" class="edge">
<title>disable&#45;&gt;end</title>
<path fill="none" stroke="black" d="M292.96,-72.81C285.91,-64.18 277.23,-53.56 269.45,-44.03"/>
<polygon fill="black" stroke="black" points="271.95,-41.56 262.91,-36.03 266.53,-45.99 271.95,-41.56"/>
</g>
<!-- end&#45;&gt;start -->
<g id="edge10" class="edge">
<title>end&#45;&gt;start</title>
<path fill="none" stroke="black" d="M311.89,-27.35C347.9,-36.07 386,-53.83 386,-90 386,-366 386,-366 386,-366 386,-389.49 366.6,-408.1 348.09,-420.5"/>
<polygon fill="black" stroke="black" points="346.05,-417.65 339.43,-425.93 349.77,-423.58 346.05,-417.65"/>
</g>
</g>
</svg>
