<?xml version="1.0" encoding="UTF-8" standalone="no"?>
<!DOCTYPE svg PUBLIC "-//W3C//DTD SVG 1.1//EN"
 "http://www.w3.org/Graphics/SVG/1.1/DTD/svg11.dtd">
<!-- Generated by graphviz version 2.43.0 (0)
 -->
<!-- Title: test_bench Pages: 1 -->
<svg width="944pt" height="574pt"
 viewBox="0.00 0.00 943.66 574.00" xmlns="http://www.w3.org/2000/svg" xmlns:xlink="http://www.w3.org/1999/xlink">
<g id="graph0" class="graph" transform="scale(1 1) rotate(0) translate(4 570)">
<title>test_bench</title>
<polygon fill="white" stroke="transparent" points="-4,4 -4,-570 939.66,-570 939.66,4 -4,4"/>
<g id="clust1" class="cluster">
<title>cluster_card</title>
<path fill="#fff9e6" stroke="#666666" d="M20,-170C20,-170 670,-170 670,-170 676,-170 682,-176 682,-182 682,-182 682,-447 682,-447 682,-453 676,-459 670,-459 670,-459 20,-459 20,-459 14,-459 8,-453 8,-447 8,-447 8,-182 8,-182 8,-176 14,-170 20,-170"/>
<text text-anchor="middle" x="345" y="-445.4" font-family="Times,serif" font-size="12.00" fill="#333333">CARTE DE SORTIE SOUS TEST</text>
</g>
<g id="clust3" class="cluster">
<title>cluster_high_voltage</title>
<polygon fill="#ffebee" stroke="#c62828" stroke-dasharray="5,2" points="514,-190 514,-287 662,-287 662,-190 514,-190"/>
<text text-anchor="middle" x="588" y="-275" font-family="Times,serif" font-size="10.00" fill="#c62828">Haute Tension</text>
</g>
<!-- arduino -->
<g id="node1" class="node">
<title>arduino</title>
<path fill="#64b5f6" stroke="#1976d2" d="M142,-566C142,-566 22,-566 22,-566 16,-566 10,-560 10,-554 10,-554 10,-525 10,-525 10,-519 16,-513 22,-513 22,-513 142,-513 142,-513 148,-513 154,-519 154,-525 154,-525 154,-554 154,-554 154,-560 148,-566 142,-566"/>
<text text-anchor="middle" x="82" y="-550.8" font-family="Arial" font-size="14.00" fill="white">Arduino</text>
<text text-anchor="middle" x="82" y="-535.8" font-family="Arial" font-size="14.00" fill="white">Pin 9 (signal)</text>
<text text-anchor="middle" x="82" y="-520.8" font-family="Arial" font-size="14.00" fill="white">GND</text>
</g>
<!-- molex -->
<g id="node2" class="node">
<title>molex</title>
<path fill="#90ee90" stroke="#2e7d32" d="M124,-394C124,-394 40,-394 40,-394 34,-394 28,-388 28,-382 28,-382 28,-368 28,-368 28,-362 34,-356 40,-356 40,-356 124,-356 124,-356 130,-356 136,-362 136,-368 136,-368 136,-382 136,-382 136,-388 130,-394 124,-394"/>
<text text-anchor="middle" x="82" y="-378.8" font-family="Arial" font-size="14.00">Connecteur</text>
<text text-anchor="middle" x="82" y="-363.8" font-family="Arial" font-size="14.00">Molex IN</text>
</g>
<!-- arduino&#45;&gt;molex -->
<g id="edge4" class="edge">
<title>arduino&#45;&gt;molex</title>
<path fill="none" stroke="#2196f3" d="M82,-512.7C82,-512.7 82,-404.08 82,-404.08"/>
<polygon fill="#2196f3" stroke="#2196f3" points="85.5,-404.08 82,-394.08 78.5,-404.08 85.5,-404.08"/>
<text text-anchor="middle" x="135" y="-469.8" font-family="Arial" font-size="9.00" fill="#1565c0"> &#160;Câble dupont (3.3V&#45;5V) &#160;</text>
</g>
<!-- opto -->
<g id="node3" class="node">
<title>opto</title>
<polygon fill="#ffd54f" stroke="#f57c00" stroke-width="2" points="422,-418 264,-418 264,-332 422,-332 422,-418"/>
<text text-anchor="middle" x="343" y="-394.5" font-family="Arial" font-size="10.00">Optocoupleur</text>
<text text-anchor="middle" x="343" y="-383.5" font-family="Arial" font-size="10.00">MOC3043</text>
<text text-anchor="middle" x="343" y="-372.5" font-family="Arial" font-size="10.00">━━━━━━━━━━━━━</text>
<text text-anchor="middle" x="343" y="-361.5" font-family="Arial" font-size="10.00">ISOLATION</text>
<text text-anchor="middle" x="343" y="-350.5" font-family="Arial" font-size="10.00">GALVANIQUE</text>
</g>
<!-- molex&#45;&gt;opto -->
<g id="edge2" class="edge">
<title>molex&#45;&gt;opto</title>
<path fill="none" stroke="#4caf50" d="M136.08,-375C136.08,-375 253.98,-375 253.98,-375"/>
<polygon fill="#4caf50" stroke="#4caf50" points="253.98,-378.5 263.98,-375 253.98,-371.5 253.98,-378.5"/>
</g>
<!-- triac -->
<g id="node4" class="node">
<title>triac</title>
<path fill="#ff6b6b" stroke="#c62828" d="M650,-394C650,-394 566,-394 566,-394 560,-394 554,-388 554,-382 554,-382 554,-368 554,-368 554,-362 560,-356 566,-356 566,-356 650,-356 650,-356 656,-356 662,-362 662,-368 662,-368 662,-382 662,-382 662,-388 656,-394 650,-394"/>
<text text-anchor="middle" x="608" y="-378.8" font-family="Arial" font-size="14.00" fill="white">Triac</text>
<text text-anchor="middle" x="608" y="-363.8" font-family="Arial" font-size="14.00" fill="white">BTA41</text>
</g>
<!-- opto&#45;&gt;triac -->
<g id="edge3" class="edge">
<title>opto&#45;&gt;triac</title>
<path fill="none" stroke="#ff9800" stroke-dasharray="5,2" d="M422.15,-375C422.15,-375 543.59,-375 543.59,-375"/>
<polygon fill="#ff9800" stroke="#ff9800" points="543.59,-378.5 553.59,-375 543.59,-371.5 543.59,-378.5"/>
</g>
<!-- power_conn -->
<g id="node5" class="node">
<title>power_conn</title>
<path fill="#ffb6c1" stroke="#c2185b" d="M630,-248C630,-248 546,-248 546,-248 540,-248 534,-242 534,-236 534,-236 534,-222 534,-222 534,-216 540,-210 546,-210 546,-210 630,-210 630,-210 636,-210 642,-216 642,-222 642,-222 642,-236 642,-236 642,-242 636,-248 630,-248"/>
<text text-anchor="middle" x="588" y="-232.8" font-family="Arial" font-size="14.00">Connecteur</text>
<text text-anchor="middle" x="588" y="-217.8" font-family="Arial" font-size="14.00">Puissance</text>
</g>
<!-- triac&#45;&gt;power_conn -->
<g id="edge1" class="edge">
<title>triac&#45;&gt;power_conn</title>
<path fill="none" stroke="#f44336" stroke-width="2" d="M598,-355.91C598,-355.91 598,-258.09 598,-258.09"/>
<polygon fill="#f44336" stroke="#f44336" stroke-width="2" points="601.5,-258.09 598,-248.09 594.5,-258.09 601.5,-258.09"/>
</g>
<!-- secteur -->
<g id="node7" class="node">
<title>secteur</title>
<path fill="#d32f2f" stroke="#b71c1c" stroke-width="2" d="M648,-77C648,-77 528,-77 528,-77 522,-77 516,-71 516,-65 516,-65 516,-51 516,-51 516,-45 522,-39 528,-39 528,-39 648,-39 648,-39 654,-39 660,-45 660,-51 660,-51 660,-65 660,-65 660,-71 654,-77 648,-77"/>
<text text-anchor="middle" x="588" y="-61.8" font-family="Arial" font-size="14.00" fill="white">⚠️ 230 V ⚠️</text>
<text text-anchor="middle" x="588" y="-46.8" font-family="Arial" font-size="14.00" fill="white">Secteur</text>
</g>
<!-- power_conn&#45;&gt;secteur -->
<g id="edge5" class="edge">
<title>power_conn&#45;&gt;secteur</title>
<path fill="none" stroke="#d32f2f" stroke-width="2" d="M588,-199.72C588,-199.72 588,-77.21 588,-77.21"/>
<polygon fill="#d32f2f" stroke="#d32f2f" stroke-width="2" points="584.5,-199.72 588,-209.72 591.5,-199.72 584.5,-199.72"/>
<text text-anchor="middle" x="626" y="-154.8" font-family="Arial" font-size="9.00" fill="#b71c1c"> &#160;Entrée 230V AC &#160;</text>
</g>
<!-- legend -->
<g id="node6" class="node">
<title>legend</title>
<path fill="lightgrey" stroke="transparent" d="M388,-116C388,-116 198,-116 198,-116 192,-116 186,-110 186,-104 186,-104 186,-12 186,-12 186,-6 192,0 198,0 198,0 388,0 388,0 394,0 400,-6 400,-12 400,-12 400,-104 400,-104 400,-110 394,-116 388,-116"/>
<polygon fill="#e0e0e0" stroke="transparent" points="186,-87 186,-116 400,-116 400,-87 186,-87"/>
<polygon fill="none" stroke="black" points="186,-87 186,-116 400,-116 400,-87 186,-87"/>
<text text-anchor="start" x="265" y="-98.8" font-family="Arial" font-weight="bold" font-size="14.00">Légende</text>
<polygon fill="#90ee90" stroke="transparent" points="186,-58 186,-87 240,-87 240,-58 186,-58"/>
<polygon fill="none" stroke="black" points="186,-58 186,-87 240,-87 240,-58 186,-58"/>
<text text-anchor="start" x="200.5" y="-68.8" font-family="Arial" font-size="14.00">Vert</text>
<polygon fill="none" stroke="black" points="240,-58 240,-87 400,-87 400,-58 240,-58"/>
<text text-anchor="start" x="247" y="-68.8" font-family="Arial" font-size="14.00">Basse tension (3.3V&#45;5V)</text>
<polygon fill="#ff6b6b" stroke="transparent" points="186,-29 186,-58 240,-58 240,-29 186,-29"/>
<polygon fill="none" stroke="black" points="186,-29 186,-58 240,-58 240,-29 186,-29"/>
<text text-anchor="start" x="193" y="-39.8" font-family="Arial" font-size="14.00" fill="white">Rouge</text>
<polygon fill="none" stroke="black" points="240,-29 240,-58 400,-58 400,-29 240,-29"/>
<text text-anchor="start" x="247" y="-39.8" font-family="Arial" font-size="14.00">Haute tension (230V)</text>
<polygon fill="#ffd54f" stroke="transparent" points="186,0 186,-29 240,-29 240,0 186,0"/>
<polygon fill="none" stroke="black" points="186,0 186,-29 240,-29 240,0 186,0"/>
<text text-anchor="start" x="194.5" y="-10.8" font-family="Arial" font-size="14.00">Jaune</text>
<polygon fill="none" stroke="black" points="240,0 240,-29 400,-29 400,0 240,0"/>
<text text-anchor="start" x="247" y="-10.8" font-family="Arial" font-size="14.00">Isolation galvanique</text>
</g>
<!-- legend&#45;&gt;secteur -->
<!-- lampe -->
<g id="node8" class="node">
<title>lampe</title>
<ellipse fill="#fff59d" stroke="#f9a825" cx="860" cy="-58" rx="75.82" ry="37.45"/>
<text text-anchor="middle" x="860" y="-69.3" font-family="Arial" font-size="14.00">Lampe</text>
<text text-anchor="middle" x="860" y="-54.3" font-family="Arial" font-size="14.00">Incandescence</text>
<text text-anchor="middle" x="860" y="-39.3" font-family="Arial" font-size="14.00">100 W</text>
</g>
<!-- secteur&#45;&gt;lampe -->
<g id="edge6" class="edge">
<title>secteur&#45;&gt;lampe</title>
<path fill="none" stroke="#ff5722" stroke-width="1.5" d="M660.18,-64C660.18,-64 775.11,-64 775.11,-64"/>
<polygon fill="#ff5722" stroke="#ff5722" stroke-width="1.5" points="775.11,-67.5 785.11,-64 775.11,-60.5 775.11,-67.5"/>
</g>
<!-- secteur&#45;&gt;lampe -->
</g>
</svg>
